<svg width="221" height="77" viewBox="0 0 221 77" fill="none" xmlns="http://www.w3.org/2000/svg">
<path d="M27.5 45.0909H42.2273L47.5455 51.7727L56.5455 62L68.2727 76.1818H51.5L43.1818 66.5L37.5909 58.4545L27.5 45.0909ZM68.1364 36.0909C68.1364 43.8636 66.625 50.4205 63.6023 55.7614C60.5795 61.0795 56.5 65.1136 51.3636 67.8636C46.2273 70.5909 40.5 71.9545 34.1818 71.9545C27.8182 71.9545 22.0682 70.5795 16.9318 67.8295C11.8182 65.0568 7.75 61.0114 4.72727 55.6932C1.72727 50.3523 0.227273 43.8182 0.227273 36.0909C0.227273 28.3182 1.72727 21.7727 4.72727 16.4545C7.75 11.1136 11.8182 7.07954 16.9318 4.35227C22.0682 1.60227 27.8182 0.22727 34.1818 0.22727C40.5 0.22727 46.2273 1.60227 51.3636 4.35227C56.5 7.07954 60.5795 11.1136 63.6023 16.4545C66.625 21.7727 68.1364 28.3182 68.1364 36.0909ZM48.6364 36.0909C48.6364 31.9091 48.0795 28.3864 46.9659 25.5227C45.875 22.6364 44.25 20.4545 42.0909 18.9773C39.9545 17.4773 37.3182 16.7273 34.1818 16.7273C31.0455 16.7273 28.3977 17.4773 26.2386 18.9773C24.1023 20.4545 22.4773 22.6364 21.3636 25.5227C20.2727 28.3864 19.7273 31.9091 19.7273 36.0909C19.7273 40.2727 20.2727 43.8068 21.3636 46.6932C22.4773 49.5568 24.1023 51.7386 26.2386 53.2386C28.3977 54.7159 31.0455 55.4545 34.1818 55.4545C37.3182 55.4545 39.9545 54.7159 42.0909 53.2386C44.25 51.7386 45.875 49.5568 46.9659 46.6932C48.0795 43.8068 48.6364 40.2727 48.6364 36.0909ZM71.8097 16.4545V1.18182H132.491V16.4545H111.491V71H92.8097V16.4545H71.8097ZM139.625 1.18182H163.216L179.443 40.7273H180.261L196.489 1.18182H220.08V71H201.534V30.6364H200.989L185.443 70.4545H174.261L158.716 30.3636H158.17V71H139.625V1.18182Z" fill="#01D1FF"/>
</svg>
