<svg width="441" height="77" viewBox="0 0 441 77" fill="none" xmlns="http://www.w3.org/2000/svg">
<path d="M27.625 45.0909H42.3523L47.6705 51.7727L56.6705 62L68.3977 76.1818H51.625L43.3068 66.5L37.7159 58.4545L27.625 45.0909ZM68.2614 36.0909C68.2614 43.8636 66.75 50.4205 63.7273 55.7614C60.7045 61.0795 56.625 65.1136 51.4886 67.8636C46.3523 70.5909 40.625 71.9545 34.3068 71.9545C27.9432 71.9545 22.1932 70.5795 17.0568 67.8295C11.9432 65.0568 7.875 61.0114 4.85227 55.6932C1.85227 50.3523 0.352273 43.8182 0.352273 36.0909C0.352273 28.3182 1.85227 21.7727 4.85227 16.4545C7.875 11.1136 11.9432 7.07954 17.0568 4.35227C22.1932 1.60227 27.9432 0.22727 34.3068 0.22727C40.625 0.22727 46.3523 1.60227 51.4886 4.35227C56.625 7.07954 60.7045 11.1136 63.7273 16.4545C66.75 21.7727 68.2614 28.3182 68.2614 36.0909ZM48.7614 36.0909C48.7614 31.9091 48.2045 28.3864 47.0909 25.5227C46 22.6364 44.375 20.4545 42.2159 18.9773C40.0795 17.4773 37.4432 16.7273 34.3068 16.7273C31.1705 16.7273 28.5227 17.4773 26.3636 18.9773C24.2273 20.4545 22.6023 22.6364 21.4886 25.5227C20.3977 28.3864 19.8523 31.9091 19.8523 36.0909C19.8523 40.2727 20.3977 43.8068 21.4886 46.6932C22.6023 49.5568 24.2273 51.7386 26.3636 53.2386C28.5227 54.7159 31.1705 55.4545 34.3068 55.4545C37.4432 55.4545 40.0795 54.7159 42.2159 53.2386C44.375 51.7386 46 49.5568 47.0909 46.6932C48.2045 43.8068 48.7614 40.2727 48.7614 36.0909ZM111.352 48.0909V18.6364H130.17V71H112.307V61.0455H111.761C110.625 64.3864 108.636 67 105.795 68.8864C102.955 70.75 99.5795 71.6818 95.6705 71.6818C92.0114 71.6818 88.8068 70.8409 86.0568 69.1591C83.3295 67.4773 81.2045 65.1591 79.6818 62.2045C78.1818 59.25 77.4205 55.8636 77.3977 52.0455V18.6364H96.2159V48.0909C96.2386 50.6818 96.8977 52.7159 98.1932 54.1932C99.5114 55.6705 101.352 56.4091 103.716 56.4091C105.284 56.4091 106.636 56.0795 107.773 55.4205C108.932 54.7386 109.818 53.7841 110.432 52.5568C111.068 51.3068 111.375 49.8182 111.352 48.0909ZM154.332 71.8182C150.991 71.8182 148.037 71.2727 145.469 70.1818C142.923 69.0682 140.923 67.3864 139.469 65.1364C138.014 62.8864 137.287 60.0227 137.287 56.5455C137.287 53.6818 137.776 51.2386 138.753 49.2159C139.73 47.1705 141.094 45.5 142.844 44.2045C144.594 42.9091 146.628 41.9205 148.946 41.2386C151.287 40.5568 153.81 40.1136 156.514 39.9091C159.446 39.6818 161.798 39.4091 163.571 39.0909C165.366 38.75 166.662 38.2841 167.457 37.6932C168.253 37.0795 168.651 36.2727 168.651 35.2727V35.1364C168.651 33.7727 168.128 32.7273 167.082 32C166.037 31.2727 164.696 30.9091 163.06 30.9091C161.264 30.9091 159.798 31.3068 158.662 32.1023C157.548 32.875 156.878 34.0682 156.651 35.6818H139.332C139.56 32.5 140.571 29.5682 142.366 26.8864C144.185 24.1818 146.832 22.0227 150.31 20.4091C153.787 18.7727 158.128 17.9545 163.332 17.9545C167.082 17.9545 170.446 18.3977 173.423 19.2841C176.401 20.1477 178.935 21.3636 181.026 22.9318C183.116 24.4773 184.707 26.2955 185.798 28.3864C186.912 30.4545 187.469 32.7045 187.469 35.1364V71H169.878V63.6364H169.469C168.423 65.5909 167.151 67.1705 165.651 68.375C164.173 69.5795 162.48 70.4545 160.571 71C158.685 71.5455 156.605 71.8182 154.332 71.8182ZM160.469 59.9545C161.901 59.9545 163.241 59.6591 164.491 59.0682C165.764 58.4773 166.798 57.625 167.594 56.5114C168.389 55.3977 168.787 54.0455 168.787 52.4545V48.0909C168.287 48.2955 167.753 48.4886 167.185 48.6705C166.639 48.8523 166.048 49.0227 165.412 49.1818C164.798 49.3409 164.139 49.4886 163.435 49.625C162.753 49.7614 162.037 49.8864 161.287 50C159.832 50.2273 158.639 50.6023 157.707 51.125C156.798 51.625 156.116 52.25 155.662 53C155.23 53.7273 155.014 54.5455 155.014 55.4545C155.014 56.9091 155.526 58.0227 156.548 58.7955C157.571 59.5682 158.878 59.9545 160.469 59.9545ZM215.278 41.5455V71H196.46V18.6364H214.324V28.5909H214.869C216.006 25.2727 218.006 22.6705 220.869 20.7841C223.756 18.8977 227.119 17.9545 230.96 17.9545C234.665 17.9545 237.881 18.8068 240.608 20.5114C243.358 22.1932 245.483 24.5114 246.983 27.4659C248.506 30.4205 249.256 33.7955 249.233 37.5909V71H230.415V41.5455C230.438 38.9545 229.778 36.9205 228.438 35.4432C227.119 33.9659 225.278 33.2273 222.915 33.2273C221.369 33.2273 220.017 33.5682 218.858 34.25C217.722 34.9091 216.847 35.8636 216.233 37.1136C215.619 38.3409 215.301 39.8182 215.278 41.5455ZM289.75 18.6364V32.2727H255.25V18.6364H289.75ZM261.932 6.09091H280.75V54.1591C280.75 54.8864 280.875 55.5 281.125 56C281.375 56.4773 281.761 56.8409 282.284 57.0909C282.807 57.3182 283.477 57.4318 284.295 57.4318C284.864 57.4318 285.523 57.3636 286.273 57.2273C287.045 57.0909 287.614 56.9773 287.977 56.8864L290.705 70.1136C289.864 70.3636 288.659 70.6705 287.091 71.0341C285.545 71.3977 283.705 71.6364 281.568 71.75C277.25 71.9773 273.625 71.5341 270.693 70.4205C267.761 69.2841 265.557 67.5 264.08 65.0682C262.602 62.6364 261.886 59.5909 261.932 55.9318V6.09091ZM331.384 48.0909V18.6364H350.202V71H332.338V61.0455H331.793C330.656 64.3864 328.668 67 325.827 68.8864C322.986 70.75 319.611 71.6818 315.702 71.6818C312.043 71.6818 308.838 70.8409 306.088 69.1591C303.361 67.4773 301.236 65.1591 299.713 62.2045C298.213 59.25 297.452 55.8636 297.429 52.0455V18.6364H316.247V48.0909C316.27 50.6818 316.929 52.7159 318.224 54.1932C319.543 55.6705 321.384 56.4091 323.747 56.4091C325.315 56.4091 326.668 56.0795 327.804 55.4205C328.963 54.7386 329.849 53.7841 330.463 52.5568C331.099 51.3068 331.406 49.8182 331.384 48.0909ZM359.773 71V18.6364H377.636V28.5909H378.182C379.273 25.3182 381.136 22.7273 383.773 20.8182C386.409 18.9091 389.545 17.9545 393.182 17.9545C396.864 17.9545 400.034 18.9318 402.693 20.8864C405.352 22.8182 406.955 25.3864 407.5 28.5909H408.045C408.932 25.3864 410.818 22.8182 413.705 20.8864C416.591 18.9318 419.977 17.9545 423.864 17.9545C428.886 17.9545 432.955 19.5682 436.068 22.7955C439.205 26.0227 440.773 30.3182 440.773 35.6818V71H421.955V40.4545C421.955 38.1591 421.375 36.3636 420.216 35.0682C419.057 33.75 417.5 33.0909 415.545 33.0909C413.614 33.0909 412.08 33.75 410.943 35.0682C409.83 36.3636 409.273 38.1591 409.273 40.4545V71H391.273V40.4545C391.273 38.1591 390.693 36.3636 389.534 35.0682C388.375 33.75 386.818 33.0909 384.864 33.0909C383.568 33.0909 382.455 33.3864 381.523 33.9773C380.591 34.5682 379.864 35.4205 379.341 36.5341C378.841 37.625 378.591 38.9318 378.591 40.4545V71H359.773Z" fill="#01D1FF"/>
</svg>
